<svg version="1.2" xmlns="http://www.w3.org/2000/svg" viewBox="0 0 1551 289" width="1551" height="289">
	<title>equifax_150_28-svg</title>
	<style>
		.s0 { fill: #9e1c33 } 
	</style>
	<g id="Layer">
		<g id="Layer">
		</g>
		<g id="Layer">
			<path id="Layer" class="s0" d="m110.6 124.9l-10.3 47.5h110.5l-9.3 46.4h-201.5l49.6-218.8h195.3l-9.3 44.4h-107.4l-8.3 37.1h94l-9.3 43.4z"/>
			<path id="Layer" fill-rule="evenodd" class="s0" d="m397.9 124.9l137.4 164.1h-90.9l-60-70.2c0 0-22.7 7.2-58.9 6.2-36.1-2.1-103.3 0-100.2-63 2.1-30.9 12.4-71.2 12.4-71.2 19.6-77.4 73.4-77.4 136.4-75.3 43.4 1 111.6 1 99.2 69.1 0 0-3.1 19.6-7.3 40.3zm-34-72.3c-31-2-42.4 26.9-42.4 26.9-13.4 39.2-18.6 74.3-18.6 74.3-5.2 25.8 14.5 35.1 32 35.1 15.5 0 36.2-9.3 42.4-26.9 13.4-37.1 18.6-74.3 18.6-74.3 7.2-41.3-32-35.1-32-35.1z"/>
			<path id="Layer" fill-rule="evenodd" class="s0" d="m1504.5 40.5q0-6.1 3.1-11.4 3-5.3 8.3-8.3 5.3-3.1 11.4-3.1 6 0 11.3 3 5.3 3 8.4 8.4 3 5.3 3 11.4 0 6-2.9 11.3-3 5.2-8.3 8.3-5.3 3.1-11.5 3.1-6.3 0-11.6-3.1-5.3-3.2-8.2-8.4-3-5.2-3-11.2zm3.8 0q0 5.1 2.5 9.4 2.5 4.4 6.9 7 4.4 2.6 9.6 2.6 5.2 0 9.7-2.6 4.4-2.7 6.9-7 2.4-4.4 2.4-9.4 0-5-2.5-9.4-2.4-4.4-6.9-7-4.4-2.6-9.6-2.6-5.1 0-9.5 2.5-4.5 2.6-7 7-2.5 4.4-2.5 9.5zm29-5.3q0 2.5-1.3 4.3-1.4 1.9-4 3l6.4 11.3h-6.1l-5.2-9.8h-2.7v9.8h-5.4v-26.6h8.1q10.2 0 10.2 8zm-12.9 4.4h2.1q2.6 0 4-1.1 1.3-1.1 1.3-3 0-2.2-1.4-3-1.3-0.9-3.9-0.9h-2.1zm-870.3-13.8h82.7c0 0-31 139.4-36.2 156.9-5.2 17.6-32 41.3-93 44.4-10.3 0-28.9 0-49.6-3.1l-73.4-85.7c0 0 19.7-89.8 25.9-112.5h79.5c0 0-25.8 111.5-31 139.4 0 0 0 22.7 24.8 22.7 0 0 32.1 4.1 38.3-21.7l32-141.4c0 0 0 1 0 1zm192.2-1l-44.4 194h-79.6l42.4-194zm166.3 110.4h-78.5l-19.6 83.6h-80.6l42.3-194h175.7l-9.3 37.1h-92l-9.3 36.2h79.6zm474.3-110.5l-102.3 89.8 68.2 103.2h-99.2l-34.1-57.8-55.8 57.8h-120.9l-4.1-42.3h-84.8l-28.9 43.4h-56.8l137.4-194.1h97.1l19.6 156.9 65.1-59.8-64-97.1h103.3l31 49.6 50.6-49.6c0 0 78.6 0 78.6 0zm-355.5 109.4l-6.2-64-44.4 64z"/>
		</g>
	</g>
</svg>