<svg version="1.1" id="Layer_1" xmlns:x="ns_extend;" xmlns:i="ns_ai;" xmlns:graph="ns_graphs;" xmlns="http://www.w3.org/2000/svg" xmlns:xlink="http://www.w3.org/1999/xlink" x="0px" y="0px" viewBox="0 0 309.4 100" style="enable-background:new 0 0 309.4 100;" xml:space="preserve">
 <style type="text/css">
  .st0{fill:#426DA9;}
	.st1{fill:#6D2077;}
	.st2{fill:#AF1685;}
	.st3{fill:#E63888;}
	.st4{fill:#004691;}
	.st5{fill:#1D4F91;}
 </style>
 <metadata>
  <sfw xmlns="ns_sfw;">
   <slices>
   </slices>
   <sliceSourceBounds bottomLeftOrigin="true" height="100" width="309.4" x="-166.8" y="2.5">
   </sliceSourceBounds>
  </sfw>
 </metadata>
 <g>
  <path class="st0" d="M48.9,23.5H37.6c-3.4,0-6.1-2.7-6.1-6.1c0,0,0,0,0,0V6.1c0-3.4,2.7-6.1,6.1-6.1c0,0,0,0,0,0h11.3
		C52.3,0,55,2.7,55,6.1v11.3C55,20.8,52.3,23.5,48.9,23.5">
  </path>
  <path class="st1" d="M19.6,48.9H6.9c-3.8,0-6.9-3.1-6.9-6.8c0,0,0,0,0,0V29.3c0-3.8,3.1-6.9,6.9-6.9h12.7c3.8,0,6.9,3.1,6.9,6.9
		v12.8C26.5,45.9,23.4,48.9,19.6,48.9C19.6,48.9,19.6,48.9,19.6,48.9">
  </path>
  <path class="st2" d="M18.4,75.4h-7.8c-2.3,0-4.2-1.9-4.2-4.2c0,0,0,0,0,0v-7.8c0-2.3,1.9-4.2,4.2-4.2h7.8c2.3,0,4.2,1.9,4.2,4.2
		v7.8C22.6,73.5,20.7,75.4,18.4,75.4C18.4,75.4,18.4,75.4,18.4,75.4">
  </path>
  <path class="st3" d="M39.3,100h-9.2c-2.7,0-5-2.2-5-4.9c0,0,0,0,0,0v-9.2c0-2.7,2.2-5,5-5h9.2c2.7,0,5,2.2,5,5V95
		C44.3,97.8,42,100,39.3,100 M73,28.2h-6.4c-1.9,0-3.4-1.5-3.4-3.4v-6.4c0-1.9,1.5-3.4,3.4-3.4H73c1.9,0,3.4,1.5,3.4,3.4v6.4
		C76.5,26.6,74.9,28.2,73,28.2">
  </path>
  <path class="st4" d="M212.6,32.4c2,0,3.7-1.6,3.7-3.7c0,0,0,0,0,0c0-2-1.6-3.7-3.7-3.7c-2,0-3.7,1.6-3.7,3.7S210.6,32.4,212.6,32.4
		C212.6,32.4,212.6,32.4,212.6,32.4L212.6,32.4z">
  </path>
  <path class="st5" d="M78.5,71.6c-0.6,0.9-1.5,1.3-2.5,1.3c-0.6,0-1.2-0.1-1.7-0.4c-0.8-0.5-1.4-1.6-1.4-2.6c0-0.5,0.1-1,0.4-1.4
		L81.9,55l-8.5-13.4c-0.3-0.4-0.4-1-0.4-1.5c0-1,0.5-2.1,1.4-2.6c0.5-0.3,1-0.4,1.6-0.4c1,0,2,0.4,2.6,1.3l7,11l7-11
		c0.6-0.9,1.6-1.3,2.6-1.3c0.6,0,1.1,0.1,1.6,0.4c0.9,0.5,1.4,1.6,1.4,2.6c0,0.5-0.1,1.1-0.4,1.5L89,55l8.5,13.4
		c0.3,0.4,0.4,0.9,0.4,1.4c0,1.1-0.6,2.1-1.4,2.6c-0.5,0.3-1.1,0.4-1.7,0.4c-1,0-1.9-0.4-2.5-1.3l-7-10.9
		C85.4,60.7,78.5,71.6,78.5,71.6z M108.9,41.3c3.3-3,7.7-4.7,12.2-4.7c10.1,0,18.4,8.1,18.4,18.2c0,0.1,0,0.1,0,0.2
		c0,10.1-8.2,18.3-18.4,18.3c-4.7,0-9-1.8-12.2-4.7v15.7c0,1.6-1.4,2.9-3.1,2.9c-1.5,0-3-1.3-3-2.9V39.8c0-1.6,1.5-2.9,3-2.9
		c1.6,0,3.1,1.4,3.1,2.9V41.3L108.9,41.3z M121.1,42.7c-6.8,0-12.2,5.4-12.2,12.3c0,6.8,5.4,12.2,12.2,12.2
		c6.9,0,12.3-5.4,12.3-12.2C133.4,48.1,128,42.7,121.1,42.7L121.1,42.7z M191.5,51.7v18.4c0,1.6-1.5,2.9-3,2.9
		c-1.6,0-3.1-1.3-3.1-2.9V39.8c0-1.6,1.4-2.9,3.1-2.9c1.4,0,2.9,1.3,3,2.8c2.5-1.9,5.7-3,9.2-3.1c1.9,0,3.3,1.5,3.3,3
		c0,1.6-1.5,3.1-3.3,3.1C195.9,42.9,191.5,44.6,191.5,51.7z M212.7,36.9c-1.6,0-3.1,1.3-3.1,2.9v30.3c0,1.6,1.4,2.9,3.1,2.9
		c1.5,0,3-1.3,3-2.9V39.8C215.7,38.2,214.2,36.9,212.7,36.9z M251.3,39.8c0-1.6,1.4-2.9,3.1-2.9c1.5,0,3,1.3,3,2.9v30.3
		c0,1.6-1.5,2.9-3,2.9c-1.6,0-3.1-1.3-3.1-2.9v-1.5c-3.4,3-7.7,4.7-12.2,4.7c-10.1,0-18.4-8.1-18.4-18.2c0-0.1,0-0.1,0-0.2
		c0-10.1,8.2-18.3,18.4-18.3c4.7,0,9,1.8,12.2,4.7V39.8L251.3,39.8z M239,67.2c6.8,0,12.2-5.4,12.2-12.3c0-6.7-5.3-12.2-12-12.2
		c-0.1,0-0.1,0-0.2,0c-6.9,0-12.3,5.4-12.3,12.2C226.8,61.8,232.2,67.2,239,67.2z M288.1,52c0-5-4.4-9.5-9.5-9.5
		c-4.9,0-9.5,2-9.5,9.1v18.4c0,1.6-1.5,2.9-3,2.9c-1.6,0-3.1-1.3-3.1-2.9V39.8c0-1.6,1.4-2.9,3.1-2.9c1.4,0,2.9,1.3,3,2.8
		c2.6-2,5.8-3.1,9.4-3.1c8.2,0,15.6,6.5,15.6,14.6v18.9c0,1.6-1.5,2.9-3,2.9c-1.6,0-3.1-1.3-3.1-2.9L288.1,52L288.1,52z M71.2,53.9
		c-0.1-9.3-8.5-17.3-18.3-17.3c-10.2,0-18.4,8.2-18.4,18.3c0,10.1,8.1,18.4,18.2,18.4c0.1,0,0.1,0,0.2,0c4.9,0,9.5-1.9,12.7-5.2
		c0.6-0.6,1.1-1.4,1.1-2.3c0-1.6-1.4-3.1-3.1-3.1c-0.9,0-1.8,0.6-2.4,1.2c-2.1,2.2-5.1,3.2-8.3,3.2c-6.1,0-11.1-4.2-12.2-10h27.4
		c0,0,0,0,0.1,0h0.1c0.1,0,0.1,0,0.2,0c0.1,0,0.2,0,0.3-0.1C70.3,56.6,71.2,55.3,71.2,53.9z M53,42.6c5.5,0,10.1,3.5,11.7,8.5H41.2
		C42.8,46.2,47.4,42.6,53,42.6z M180.4,53.9c-0.1-9.3-8.5-17.3-18.3-17.3c-10.2,0-18.4,8.2-18.4,18.3c0,10.1,8.1,18.4,18.2,18.4
		c0.1,0,0.1,0,0.2,0c4.9,0,9.5-1.9,12.7-5.2c0.6-0.6,1.1-1.4,1.1-2.3c0-1.6-1.4-3.1-3.1-3.1c-0.9,0-1.8,0.6-2.4,1.2
		c-2.1,2.2-5.1,3.2-8.3,3.2c-6.1,0-11.1-4.2-12.2-10h27.4c0,0,0,0,0.1,0h0.1c0.1,0,0.2,0,0.2,0c0,0,0.1,0,0.1,0
		C179.3,56.7,180.4,55.4,180.4,53.9z M162.1,42.6c5.5,0,10.1,3.5,11.7,8.5h-23.4C151.9,46.2,156.5,42.6,162.1,42.6z M300.5,73
		c-0.3,0-0.5-0.2-0.5-0.5c0,0,0,0,0,0v-5.1h-1.1c-0.3,0-0.5-0.2-0.5-0.5c0,0,0,0,0,0c0-0.3,0.2-0.5,0.5-0.5h3.3
		c0.3,0,0.5,0.2,0.5,0.5c0,0.3-0.2,0.5-0.5,0.5H301v5.1C301,72.8,300.8,73,300.5,73C300.5,73,300.5,73,300.5,73L300.5,73z M306.4,73
		c-0.3,0-0.4-0.2-0.5-0.4l-1.4-4.2v4.1c0,0.3-0.2,0.5-0.5,0.5c0,0,0,0,0,0c-0.3,0-0.5-0.2-0.5-0.5c0,0,0,0,0,0v-5.4
		c0-0.4,0.4-0.8,0.8-0.8c0.3,0,0.6,0.2,0.7,0.6l1.4,4.2l1.4-4.2c0.1-0.3,0.4-0.5,0.7-0.6c0.4,0,0.8,0.4,0.8,0.8v5.4
		c0,0.3-0.2,0.5-0.5,0.5c0,0,0,0,0,0c-0.3,0-0.5-0.2-0.5-0.5c0,0,0,0,0,0v-4.1l-0.8,2.5l-0.6,1.7C306.8,72.9,306.7,73,306.4,73
		L306.4,73z">
  </path>
 </g>
</svg>