<svg width="137" height="140" viewBox="0 0 137 140" fill="none" xmlns="http://www.w3.org/2000/svg">
<path d="M130.949 106.423V101.506H132.889C133.26 101.506 133.577 101.572 133.84 101.705C134.104 101.836 134.305 102.023 134.442 102.265C134.581 102.505 134.651 102.787 134.651 103.112C134.651 103.439 134.581 103.72 134.44 103.955C134.299 104.189 134.095 104.368 133.828 104.493C133.562 104.618 133.24 104.68 132.862 104.68H131.563V103.844H132.694C132.893 103.844 133.058 103.817 133.189 103.763C133.32 103.708 133.418 103.627 133.482 103.518C133.547 103.409 133.58 103.274 133.58 103.112C133.58 102.949 133.547 102.811 133.482 102.699C133.418 102.587 133.319 102.502 133.186 102.445C133.055 102.385 132.89 102.356 132.689 102.356H131.988V106.423H130.949ZM133.604 104.185L134.826 106.423H133.679L132.483 104.185H133.604Z" fill="black"/>
<circle cx="132.803" cy="103.803" r="3.70322" stroke="black" stroke-width="0.2"/>
<path d="M18.1075 109.566H13.9205C13.844 109.026 13.688 108.546 13.4522 108.126C13.2164 107.7 12.9134 107.337 12.5439 107.039C12.1745 106.74 11.7475 106.511 11.2629 106.352C10.7848 106.193 10.2655 106.113 9.7048 106.113C8.69159 106.113 7.80872 106.364 7.05672 106.867C6.30469 107.363 5.72154 108.088 5.3073 109.042C4.89306 109.989 4.68592 111.14 4.68592 112.495C4.68592 113.887 4.89306 115.058 5.3073 116.005C5.7279 116.953 6.31425 117.668 7.06628 118.151C7.81828 118.634 8.68835 118.876 9.67602 118.876C10.2307 118.876 10.7435 118.803 11.2151 118.656C11.6932 118.511 12.1169 118.298 12.4864 118.018C12.8563 117.732 13.1621 117.385 13.4044 116.978C13.6527 116.571 13.8249 116.107 13.9205 115.585L18.1075 115.605C17.9994 116.501 17.7283 117.366 17.2953 118.199C16.8683 119.026 16.2913 119.767 15.565 120.421C14.8446 121.07 13.9841 121.585 12.9834 121.967C11.9893 122.342 10.8647 122.53 9.60919 122.53C7.86292 122.53 6.30148 122.135 4.9249 121.347C3.55473 120.558 2.4713 119.416 1.67466 117.922C0.884376 116.428 0.489258 114.619 0.489258 112.495C0.489258 110.364 0.890781 108.552 1.69378 107.058C2.49678 105.563 3.58657 104.425 4.96315 103.643C6.33973 102.855 7.88841 102.46 9.60919 102.46C10.7435 102.46 11.7953 102.619 12.7639 102.937C13.7391 103.255 14.6024 103.719 15.3543 104.33C16.1066 104.934 16.7183 105.675 17.1899 106.552C17.668 107.43 17.9738 108.435 18.1075 109.566ZM25.2153 102.727V122.262H21.0756V102.727H25.2153ZM28.6206 122.262V102.727H36.4599C37.9001 102.727 39.1013 102.94 40.0634 103.366C41.026 103.792 41.7492 104.384 42.2337 105.14C42.7178 105.891 42.9601 106.756 42.9601 107.735C42.9601 108.498 42.8074 109.169 42.5015 109.748C42.1952 110.32 41.7747 110.79 41.2395 111.16C40.7104 111.522 40.1052 111.779 39.4229 111.932V112.123C40.1688 112.154 40.8668 112.365 41.5166 112.752C42.1729 113.14 42.7053 113.684 43.1132 114.383C43.5212 115.077 43.725 115.903 43.725 116.863C43.725 117.9 43.4669 118.825 42.9508 119.639C42.4407 120.447 41.6856 121.086 40.6849 121.557C39.6842 122.027 38.451 122.262 36.9853 122.262H28.6206ZM32.7602 118.886H36.1345C37.2883 118.886 38.1294 118.666 38.6585 118.228C39.1871 117.782 39.4517 117.191 39.4517 116.453C39.4517 115.913 39.3213 115.436 39.0599 115.022C38.7986 114.609 38.4259 114.285 37.9414 114.049C37.4633 113.814 36.8929 113.697 36.2301 113.697H32.7602V118.886ZM32.7602 110.902H35.8286C36.3958 110.902 36.8994 110.803 37.3389 110.606C37.7854 110.403 38.1359 110.117 38.3907 109.748C38.652 109.379 38.7829 108.937 38.7829 108.422C38.7829 107.716 38.5308 107.147 38.0272 106.715C37.5302 106.282 36.8228 106.066 35.9052 106.066H32.7602V110.902ZM50.5575 102.727V122.262H46.4183V102.727H50.5575ZM53.9633 122.262V102.727H58.1025V118.857H66.4959V122.262H53.9633Z" fill="#241055"/>
<path d="M71.8994 122.262V107.442H81.7335V110.026H75.0397V113.557H81.0809V116.14H75.0397V122.262H71.8994ZM86.9857 107.442V122.262H83.8458V107.442H86.9857ZM92.5135 107.442L95.5086 112.493H95.6246L98.6345 107.442H102.181L97.6482 114.852L102.282 122.262H98.6707L95.6246 117.204H95.5086L92.4629 122.262H88.8659L93.5146 114.852L88.9527 107.442H92.5135ZM104.168 122.262V107.442H114.176V110.026H107.308V113.557H113.661V116.14H107.308V119.679H114.205V122.262H104.168ZM116.672 122.262V107.442H122.532C123.654 107.442 124.611 107.642 125.404 108.043C126.201 108.439 126.808 109.001 127.224 109.729C127.645 110.453 127.855 111.304 127.855 112.283C127.855 113.267 127.642 114.114 127.217 114.823C126.791 115.527 126.175 116.068 125.367 116.444C124.565 116.82 123.593 117.008 122.452 117.008H118.529V114.491H121.944C122.544 114.491 123.042 114.409 123.438 114.245C123.835 114.08 124.13 113.834 124.323 113.506C124.522 113.178 124.621 112.771 124.621 112.283C124.621 111.791 124.522 111.377 124.323 111.039C124.13 110.701 123.832 110.445 123.431 110.272C123.035 110.093 122.534 110.004 121.93 110.004H119.813V122.262H116.672ZM124.693 115.518L128.384 122.262H124.918L121.306 115.518H124.693Z" fill="#E53E3E"/>
<path d="M33.812 136.582L34.6223 136.157C34.096 135.932 33.7702 135.473 33.7702 134.814C33.7702 133.873 34.4302 133.339 35.5747 133.339C35.8588 133.339 36.1428 133.364 36.3935 133.414L36.2932 134.339C36.1261 134.298 35.9256 134.273 35.7168 134.273C35.2155 134.273 34.9398 134.481 34.9398 134.848C34.9398 135.206 35.2072 135.39 35.5998 135.39C36.0342 135.39 36.4185 135.14 36.6441 134.848V132.831H33.4778V131.897H40.5373V132.831H37.8137V133.998C38.056 133.839 38.3401 133.747 38.716 133.747C39.5849 133.747 40.1363 134.289 40.1363 135.181C40.1363 135.723 39.9525 136.248 39.4846 136.84L38.4737 136.282C38.7745 135.932 38.975 135.59 38.975 135.198C38.975 134.848 38.7996 134.673 38.4988 134.673C38.2231 134.673 37.9558 134.848 37.8137 135.081V137.082H36.6441V136.023C36.594 136.057 36.5439 136.082 36.4854 136.115L34.3884 137.399L33.812 136.582ZM36.6669 131.955C36.2826 130.797 36.1071 130.563 35.6309 130.563C35.4304 130.563 35.2048 130.613 35.0127 130.688L34.7203 129.78C35.021 129.663 35.3552 129.613 35.681 129.613C36.7086 129.613 37.0929 130.096 37.6694 131.955H36.6669ZM42.2253 132.831V137.082H41.0557V132.831H40.4124V131.897H41.0307C40.897 131.655 40.7967 131.38 40.7967 131.047C40.7967 130.146 41.5236 129.613 42.735 129.613C44.598 129.613 46.0266 130.613 46.862 131.955H45.7175C45.0993 131.147 44.1218 130.546 43.0107 130.546C42.3172 130.546 41.9663 130.838 41.9663 131.313C41.9663 131.53 42.0415 131.722 42.1501 131.897H42.9939V132.831H42.2253ZM45.5165 135.473C45.2408 135.473 44.915 135.523 44.6309 135.598C44.0545 135.29 43.6034 134.865 43.6034 134.314C43.6034 133.656 44.0461 133.314 44.9902 133.314H45.8089V132.831H42.7763V131.897H47.7388V132.831H46.9618V134.106H45.1823C44.8732 134.106 44.7479 134.214 44.7479 134.406C44.7479 134.523 44.8315 134.639 44.9401 134.723C45.1907 134.673 45.4915 134.623 45.8423 134.623C46.8783 134.623 47.3378 135.098 47.3378 135.815C47.3378 136.548 46.8365 137.124 45.4831 137.124C44.4806 137.124 43.6869 136.807 42.9434 136.232L43.453 135.398C44.0796 135.94 44.7061 136.232 45.3912 136.232C45.9259 136.232 46.1515 136.082 46.1515 135.831C46.1515 135.606 46.0011 135.473 45.5165 135.473ZM52.2446 132.831H51.2839V134.381H50.3816C49.5211 134.381 49.095 134.656 49.095 135.256C49.095 135.798 49.5461 136.098 50.1644 136.098C50.6656 136.098 51.075 135.94 51.5763 135.606L52.0023 136.465C51.5178 136.874 50.9163 137.082 50.1226 137.082C48.8277 137.082 47.9254 136.398 47.9254 135.215C47.9254 134.039 48.7525 133.497 50.131 133.497V132.831H47.633V131.897H52.2446V132.831ZM56.3763 137.274C55.4574 136.365 54.8642 135.64 54.5885 135.14C54.4047 134.831 54.3379 134.589 54.3379 134.373C54.3379 134.023 54.5467 133.781 54.9645 133.781C55.2318 133.781 55.449 133.898 55.6495 134.073C55.8082 133.889 55.8751 133.664 55.8751 133.381C55.8751 133.181 55.8417 132.989 55.7748 132.831H54.0622V131.897H60.3531V132.831H59.5845V137.082H58.4148V135.198C58.1893 135.24 57.9303 135.265 57.6629 135.265C57.2034 135.265 56.7022 135.173 56.226 134.923C56.1006 135.006 55.9586 135.09 55.7999 135.156C56.1842 135.606 56.7022 136.09 57.2369 136.573L56.3763 137.274ZM57.6629 134.323C57.9219 134.323 58.1725 134.298 58.4148 134.239V132.831H56.9361C57.0029 133.031 57.0363 133.239 57.0363 133.506C57.0363 133.789 56.9695 134.031 56.8609 134.231C57.1199 134.298 57.3622 134.323 57.6629 134.323ZM58.6845 139.316C57.5817 139.316 56.7964 138.782 56.128 138.016L56.8382 137.382C57.5316 138.174 57.9994 138.449 58.6344 138.449C59.0772 138.449 59.286 138.299 59.286 138.041C59.286 137.824 59.1523 137.682 58.8683 137.682C58.6093 137.682 58.3587 137.782 58.1331 137.957L57.6987 137.224C58.0245 136.982 58.4004 136.84 58.9518 136.84C59.8123 136.84 60.322 137.357 60.322 138.099C60.322 138.816 59.7873 139.316 58.6845 139.316ZM66.1032 132.831H65.3346V137.082H64.1734V136.115C63.8642 136.315 63.4465 136.423 62.9285 136.423C61.7589 136.423 61.0655 135.865 61.0655 135.081C61.0655 134.764 61.1825 134.489 61.4331 134.273C60.9485 134.014 60.6144 133.622 60.6144 133.056C60.6144 132.289 61.124 131.814 62.043 131.814C62.9703 131.814 63.3212 132.28 63.3212 132.831C63.3212 133.097 63.2377 133.339 63.0455 133.547L62.2351 133.264C62.327 133.156 62.3772 133.031 62.3772 132.922C62.3772 132.73 62.2685 132.622 62.0597 132.622C61.8007 132.622 61.6336 132.814 61.6336 133.106C61.6336 133.422 61.8341 133.689 62.2268 133.831C62.4022 133.797 62.5944 133.789 62.8032 133.789C62.987 133.789 63.1625 133.806 63.3045 133.831L63.2293 134.681C63.1458 134.673 63.0372 134.673 62.9285 134.673C62.4691 134.673 62.2351 134.806 62.2351 135.065C62.2351 135.348 62.5275 135.49 62.962 135.49C63.4799 135.49 63.8977 135.29 64.1734 134.94V132.831H63.7139V131.897H66.1032V132.831ZM67.8029 132.831V137.082H66.6333V132.831H65.99V131.897H68.5715V132.831H67.8029ZM71.8794 136.523L71.0774 137.265C70.1751 136.498 69.5067 135.84 69.0974 135.265C68.83 134.906 68.7214 134.639 68.7214 134.356C68.7214 134.006 68.9637 133.781 69.3396 133.781C69.6237 133.781 69.8576 133.898 70.1082 134.114C70.3756 133.931 70.4926 133.689 70.4926 133.364C70.4926 133.172 70.4591 132.989 70.4007 132.831H68.4457V131.897H72.2553V132.831H71.5536C71.612 133.022 71.6538 133.247 71.6538 133.531C71.6538 134.348 71.1442 134.865 70.3255 135.181C70.785 135.631 71.3029 136.073 71.8794 136.523ZM81.1264 132.831H78.4028V133.998C78.6451 133.839 78.9291 133.747 79.3051 133.747C80.1739 133.747 80.7253 134.289 80.7253 135.181C80.7253 135.723 80.5415 136.248 80.0737 136.84L79.0628 136.282C79.3636 135.932 79.5641 135.59 79.5641 135.198C79.5641 134.848 79.3886 134.673 79.0879 134.673C78.8122 134.673 78.5448 134.848 78.4028 135.081V137.082H77.2332V136.023C76.9157 136.223 76.5231 136.323 76.097 136.323C75.0694 136.323 74.3593 135.79 74.3593 134.814C74.3593 133.873 75.0193 133.339 76.1638 133.339C76.4479 133.339 76.7319 133.364 76.9826 133.414L76.8823 134.339C76.7152 134.298 76.5147 134.273 76.3058 134.273C75.8046 134.273 75.5289 134.481 75.5289 134.848C75.5289 135.206 75.7962 135.39 76.1889 135.39C76.6233 135.39 77.0076 135.14 77.2332 134.848V132.831H74.0669V131.897H81.1264V132.831ZM82.8149 132.831V137.082H81.6452V132.831H81.002V131.897H83.5835V132.831H82.8149ZM87.129 131.814C88.2652 131.814 88.7247 132.38 88.7247 133.422V134.348H90.1032V132.831H89.2928V131.897H92.0414V132.831H91.2728V137.082H90.1032V135.281H88.7247V135.406C88.7247 135.873 88.5075 136.073 88.1399 136.073C87.5885 136.073 86.8867 135.34 86.8867 134.823C86.8867 134.573 87.0204 134.348 87.5551 134.348L87.5969 134.414V133.314C87.5969 132.822 87.4715 132.597 87.1374 132.597C86.9034 132.597 86.7698 132.722 86.7698 132.906C86.7698 133.131 86.9285 133.239 87.2877 133.272L87.1791 134.031C86.3103 133.981 85.7672 133.597 85.7672 132.897C85.7672 132.172 86.3186 131.814 87.129 131.814ZM95.3516 136.523L94.5496 137.265C93.6473 136.498 92.979 135.84 92.5696 135.265C92.3023 134.906 92.1937 134.639 92.1937 134.356C92.1937 134.006 92.4359 133.781 92.8119 133.781C93.0959 133.781 93.3298 133.898 93.5805 134.114C93.8478 133.931 93.9648 133.689 93.9648 133.364C93.9648 133.172 93.9314 132.989 93.8729 132.831H91.9179V131.897H95.7276V132.831H95.0258C95.0843 133.022 95.1261 133.247 95.1261 133.531C95.1261 134.348 94.6164 134.865 93.7977 135.181C94.2572 135.631 94.7752 136.073 95.3516 136.523ZM97.4184 132.831V137.082H96.2488V132.831H95.6055V131.897H96.2739C95.9063 130.788 95.7225 130.563 95.263 130.563C95.0541 130.563 94.8369 130.613 94.6364 130.688L94.344 129.78C94.6447 129.663 94.9789 129.613 95.3048 129.613C96.3407 129.613 96.7166 130.096 97.2764 131.897H98.187V132.831H97.4184ZM100.375 137.274C99.4564 136.365 98.8633 135.64 98.5876 135.14C98.4038 134.831 98.3369 134.589 98.3369 134.373C98.3369 134.023 98.5458 133.781 98.9635 133.781C99.2309 133.781 99.4481 133.898 99.6486 134.073C99.8073 133.889 99.8741 133.664 99.8741 133.381C99.8741 133.181 99.8407 132.989 99.7739 132.831H98.0612V131.897H104.352V132.831H103.584V137.082H102.414V135.198C102.188 135.24 101.929 135.265 101.662 135.265C101.203 135.265 100.701 135.173 100.225 134.923C100.1 135.006 99.9577 135.09 99.799 135.156C100.183 135.606 100.701 136.09 101.236 136.573L100.375 137.274ZM101.662 134.323C101.921 134.323 102.172 134.298 102.414 134.239V132.831H100.935C101.002 133.031 101.035 133.239 101.035 133.506C101.035 133.789 100.969 134.031 100.86 134.231C101.119 134.298 101.361 134.323 101.662 134.323ZM102.458 131.955C102.074 130.797 101.898 130.563 101.422 130.563C101.222 130.563 100.996 130.613 100.804 130.688L100.511 129.78C100.812 129.663 101.146 129.613 101.472 129.613C102.5 129.613 102.884 130.096 103.461 131.955H102.458ZM109.025 132.831V137.082H107.864V135.281H106.335V135.406C106.335 135.873 106.109 136.073 105.75 136.073C105.19 136.073 104.497 135.34 104.497 134.823C104.497 134.573 104.622 134.348 105.124 134.348H105.165V132.831H104.23V131.897H109.794V132.831H109.025ZM107.864 132.831H106.335V134.348H107.864V132.831ZM107.8 130.663C107.8 130.296 108.075 130.013 108.451 130.013C108.819 130.013 109.095 130.296 109.095 130.663C109.095 131.038 108.819 131.322 108.451 131.322C108.075 131.322 107.8 131.038 107.8 130.663ZM113.105 137.665C112.929 137.307 112.787 136.924 112.679 136.598C112.553 136.615 112.411 136.623 112.244 136.623C111.133 136.623 109.997 136.115 109.997 134.89C109.997 133.831 110.715 133.314 112.177 133.314H112.512V132.831H109.679V131.897H114.483V132.831H113.665V134.206H112.37C111.543 134.206 111.158 134.439 111.158 134.94C111.158 135.423 111.568 135.681 112.228 135.681C112.286 135.681 112.345 135.673 112.411 135.673C112.395 135.606 112.395 135.548 112.395 135.49C112.395 135.048 112.687 134.814 113.147 134.814C113.698 134.814 114.049 135.173 114.049 135.606C114.049 135.907 113.89 136.132 113.589 136.29C113.731 136.59 113.898 136.924 114.124 137.282L113.105 137.665ZM116.304 131.897H121.567V132.831H120.799V137.082H119.629V134.906H118.393V135.09C118.393 135.581 118.184 135.806 117.808 135.806C117.256 135.806 116.563 135.065 116.563 134.514C116.563 134.189 116.705 133.973 117.215 133.973H119.629V132.831H116.304V131.897ZM123.257 132.831V137.082H122.087V132.831H121.444V131.897H124.025V132.831H123.257ZM128.695 132.831V137.082H127.534V135.281H126.005V135.406C126.005 135.873 125.779 136.073 125.42 136.073C124.86 136.073 124.167 135.34 124.167 134.823C124.167 134.573 124.292 134.348 124.794 134.348H124.835V132.831H123.9V131.897H129.464V132.831H128.695ZM127.534 132.831H126.005V134.348H127.534V132.831Z" fill="black"/>
<path d="M81.3106 46.3986C81.5858 46.6866 81.3106 66.2578 81.3106 66.2578C81.3106 66.2578 80.2092 71.7263 74.9775 76.0435C69.7457 80.3606 64.514 82.9513 64.514 82.9513C64.514 82.9513 59.8323 80.6487 54.0501 76.0435C48.2674 71.4387 47.9922 66.5454 47.9922 66.5454C47.9922 66.5454 47.717 46.9742 47.9922 46.3986C48.2674 45.8232 53.0782 45.3716 56.2529 44.3841C59.5464 43.3598 64.514 41.218 64.514 41.218C64.514 41.218 69.3039 43.3841 72.4995 44.3841C75.8737 45.4401 81.0354 46.1109 81.3106 46.3986Z" fill="#FFDE4C" stroke="#FDE800"/>
<path d="M78.7235 52.7602C84.8914 43.9213 93.0514 34.7776 93.0514 34.7776C93.0514 34.7776 83.4039 42.1707 77.7595 47.4571C72.0307 52.8223 64.01 62.0262 64.01 62.0262C64.01 62.0262 60.153 58.8159 57.3919 57.1492C54.9296 55.6635 50.7097 53.9796 50.7097 53.9796C50.7097 53.9796 54.8233 58.351 57.3278 61.2945C60.9082 65.5033 66.0656 72.3889 66.0656 72.3889C66.0656 72.3889 72.5552 61.5993 78.7235 52.7602Z" fill="#003F9E" stroke="black"/>
<path d="M4.23773 60.5412H24.7632C24.7632 60.5412 24.7855 52.7262 27.4738 45.7287C30.4433 38.0003 35.6068 32.9769 35.6068 32.9769L21.0195 19.0657C21.0195 19.0657 12.6284 26.6653 8.36862 39.1595C4.10865 51.6536 4.23773 60.5412 4.23773 60.5412Z" fill="#FF0000"/>
<path d="M93.3099 31.9463L107.639 17.3911C107.639 17.3911 100.281 9.79154 88.2754 4.76809C76.2701 -0.255387 66.0721 0.00222926 66.0721 0.00222926L65.6846 20.2248C65.6846 20.2248 73.9462 20.6112 80.5299 23.3162C87.1137 26.0212 93.3099 31.9463 93.3099 31.9463Z" fill="#FFDE4C"/>
<path d="M94.6006 33.3633L109.059 19.0657C109.059 19.0657 117.062 26.7941 121.452 38.1291C125.841 49.464 125.841 60.6704 125.841 60.6704H105.057C105.057 60.6704 104.67 52.684 102.346 45.8575C99.377 38.1291 94.6006 33.3633 94.6006 33.3633Z" fill="#72EF45"/>
<path d="M104.928 62.2158L125.841 62.6021C125.841 62.6021 125.841 73.1643 120.806 84.757C115.772 96.3497 107.639 103.82 107.639 103.82L92.9229 89.0075C92.9229 89.0075 98.99 83.3399 101.83 76.2556C104.67 70.3305 104.928 62.2158 104.928 62.2158Z" fill="#00A100"/>
<path d="M22.5684 17.5199L36.8976 31.5599C36.8976 31.5599 40.8994 27.0155 49.0319 23.445C56.0733 20.3536 64.0063 20.2248 64.0063 20.2248V0.00219727C64.0063 0.00219727 52.2595 0.00219727 41.416 4.76803C30.5724 9.53389 22.5684 17.5199 22.5684 17.5199Z" fill="#FFA41A"/>
</svg>
