<svg width="97" height="11" viewBox="0 0 97 11" fill="none" xmlns="http://www.w3.org/2000/svg">
<path d="M0.811961 7.58175L1.62234 7.15661C1.09601 6.93153 0.770191 6.47304 0.770191 5.8145C0.770191 4.87252 1.43019 4.33901 2.57475 4.33901C2.8588 4.33901 3.14285 4.36401 3.39348 4.41403L3.29322 5.33934C3.12613 5.29766 2.92563 5.27265 2.71677 5.27265C2.21551 5.27265 1.93981 5.48105 1.93981 5.84784C1.93981 6.20629 2.20715 6.38969 2.59981 6.38969C3.03424 6.38969 3.41855 6.1396 3.64412 5.84784V3.83051H0.477783V2.89686H7.53728V3.83051H4.81373V4.99756C5.05601 4.83917 5.34006 4.74747 5.71601 4.74747C6.58487 4.74747 7.13626 5.28932 7.13626 6.18128C7.13626 6.72312 6.95247 7.2483 6.48462 7.84016L5.47374 7.28164C5.7745 6.93153 5.975 6.58975 5.975 6.19796C5.975 5.84784 5.79955 5.67278 5.49879 5.67278C5.2231 5.67278 4.95576 5.84783 4.81373 6.08124V8.0819H3.64412V7.02322C3.59399 7.05656 3.54386 7.08157 3.48538 7.11491L1.38842 8.39867L0.811961 7.58175ZM3.66686 2.95522C3.28255 1.79651 3.10711 1.56311 2.63091 1.56311C2.4304 1.56311 2.20483 1.61312 2.01268 1.68814L1.72027 0.779508C2.02103 0.662803 2.35521 0.612793 2.68103 0.612793C3.70862 0.612793 4.09293 1.09628 4.66939 2.95522H3.66686ZM9.22534 3.83051V8.0819H8.05571V3.83051H7.41242V2.89686H8.03065C7.89698 2.65512 7.79673 2.38003 7.79673 2.04659C7.79673 1.14629 8.52357 0.612793 9.73496 0.612793C11.598 0.612793 13.0266 1.61311 13.862 2.95522H12.7175C12.0993 2.14662 11.1218 1.54643 10.0107 1.54643C9.31724 1.54643 8.96635 1.83819 8.96635 2.31335C8.96635 2.53009 9.04154 2.72181 9.15014 2.89686H9.99395V3.83051H9.22534ZM12.5165 6.47304C12.2408 6.47304 11.915 6.52305 11.6309 6.59808C11.0545 6.28964 10.6034 5.8645 10.6034 5.31432C10.6034 4.65577 11.0461 4.31401 11.9902 4.31401H12.8089V3.83051H9.77626V2.89686H14.7388V3.83051H13.9618V5.10593H12.1823C11.8732 5.10593 11.7479 5.21429 11.7479 5.40602C11.7479 5.52272 11.8315 5.63944 11.9401 5.7228C12.1907 5.67278 12.4915 5.62277 12.8423 5.62277C13.8783 5.62277 14.3378 6.09792 14.3378 6.81483C14.3378 7.5484 13.8365 8.12358 12.4831 8.12358C11.4806 8.12358 10.6869 7.80681 9.94335 7.23163L10.453 6.39802C11.0796 6.93987 11.7061 7.23163 12.3912 7.23163C12.9259 7.23163 13.1515 7.08157 13.1515 6.83149C13.1515 6.60641 13.0011 6.47304 12.5165 6.47304ZM19.2446 3.83051H18.2839V5.38102H17.3816C16.5211 5.38102 16.095 5.65611 16.095 6.25631C16.095 6.79816 16.5461 7.09825 17.1644 7.09825C17.6656 7.09825 18.075 6.93986 18.5763 6.60642L19.0023 7.46503C18.5178 7.8735 17.9163 8.0819 17.1226 8.0819C15.8277 8.0819 14.9254 7.39834 14.9254 6.21462C14.9254 5.03923 15.7525 4.4974 17.131 4.4974V3.83051H14.633V2.89686H19.2446V3.83051ZM23.3763 8.27363C22.4574 7.365 21.8642 6.63976 21.5885 6.1396C21.4047 5.83117 21.3379 5.58942 21.3379 5.37268C21.3379 5.02256 21.5467 4.78083 21.9645 4.78083C22.2318 4.78083 22.449 4.89753 22.6495 5.07259C22.8082 4.8892 22.8751 4.66411 22.8751 4.38069C22.8751 4.18062 22.8417 3.9889 22.7748 3.83051H21.0622V2.89686H27.3531V3.83051H26.5845V8.0819H25.4148V6.19796C25.1893 6.23964 24.9303 6.26464 24.6629 6.26464C24.2034 6.26464 23.7022 6.17295 23.226 5.92287C23.1006 6.00623 22.9586 6.08959 22.7999 6.15628C23.1842 6.60642 23.7022 7.08992 24.2369 7.57341L23.3763 8.27363ZM24.6629 5.32266C24.9219 5.32266 25.1725 5.29766 25.4148 5.2393V3.83051H23.9361C24.0029 4.03058 24.0363 4.23898 24.0363 4.50574C24.0363 4.78916 23.9695 5.0309 23.8609 5.23097C24.1199 5.29765 24.3622 5.32266 24.6629 5.32266ZM25.6845 10.316C24.5817 10.316 23.7964 9.78246 23.128 9.01554L23.8382 8.38201C24.5316 9.17393 24.9994 9.44902 25.6344 9.44902C26.0772 9.44902 26.286 9.29897 26.286 9.04055C26.286 8.82382 26.1523 8.6821 25.8683 8.6821C25.6093 8.6821 25.3587 8.78214 25.1331 8.9572L24.6987 8.22362C25.0245 7.98187 25.4004 7.84016 25.9518 7.84016C26.8123 7.84016 27.322 8.357 27.322 9.09891C27.322 9.81581 26.7873 10.316 25.6845 10.316ZM33.1032 3.83051H32.3346V8.0819H31.1734V7.11491C30.8642 7.31498 30.4465 7.42336 29.9285 7.42336C28.7589 7.42336 28.0655 6.86483 28.0655 6.08124C28.0655 5.76447 28.1825 5.48938 28.4331 5.27265C27.9485 5.01423 27.6144 4.62244 27.6144 4.05558C27.6144 3.28867 28.124 2.81351 29.043 2.81351C29.9703 2.81351 30.3212 3.28033 30.3212 3.83051C30.3212 4.09727 30.2377 4.33902 30.0455 4.54742L29.2351 4.26399C29.327 4.15562 29.3772 4.03058 29.3772 3.92221C29.3772 3.73048 29.2685 3.62211 29.0597 3.62211C28.8007 3.62211 28.6336 3.81384 28.6336 4.1056C28.6336 4.42237 28.8341 4.68913 29.2268 4.83084C29.4022 4.7975 29.5944 4.78916 29.8032 4.78916C29.987 4.78916 30.1625 4.80583 30.3045 4.83084L30.2293 5.68112C30.1458 5.67279 30.0372 5.67278 29.9285 5.67278C29.4691 5.67278 29.2351 5.80616 29.2351 6.06458C29.2351 6.34801 29.5275 6.48972 29.962 6.48972C30.4799 6.48972 30.8977 6.28965 31.1734 5.93953V3.83051H30.7139V2.89686H33.1032V3.83051ZM34.8029 3.83051V8.0819H33.6333V3.83051H32.99V2.89686H35.5715V3.83051H34.8029ZM38.8794 7.52339L38.0774 8.2653C37.1751 7.49838 36.5067 6.83982 36.0974 6.26464C35.83 5.90619 35.7214 5.63944 35.7214 5.35602C35.7214 5.0059 35.9637 4.78083 36.3396 4.78083C36.6237 4.78083 36.8576 4.89753 37.1082 5.11427C37.3756 4.93088 37.4926 4.68912 37.4926 4.36401C37.4926 4.17228 37.4591 3.9889 37.4007 3.83051H35.4457V2.89686H39.2553V3.83051H38.5536C38.612 4.02224 38.6538 4.24731 38.6538 4.53074C38.6538 5.34767 38.1442 5.86451 37.3255 6.18128C37.785 6.63143 38.3029 7.07324 38.8794 7.52339ZM48.1264 3.83051H45.4028V4.99756C45.6451 4.83917 45.9291 4.74747 46.3051 4.74747C47.1739 4.74747 47.7253 5.28932 47.7253 6.18128C47.7253 6.72312 47.5415 7.2483 47.0737 7.84016L46.0628 7.28164C46.3636 6.93153 46.5641 6.58975 46.5641 6.19796C46.5641 5.84784 46.3886 5.67278 46.0879 5.67278C45.8122 5.67278 45.5448 5.84783 45.4028 6.08124V8.0819H44.2332V7.02322C43.9157 7.22328 43.5231 7.32332 43.097 7.32332C42.0694 7.32332 41.3593 6.78982 41.3593 5.8145C41.3593 4.87252 42.0193 4.33901 43.1638 4.33901C43.4479 4.33901 43.7319 4.36401 43.9826 4.41403L43.8823 5.33934C43.7152 5.29766 43.5147 5.27265 43.3058 5.27265C42.8046 5.27265 42.5289 5.48105 42.5289 5.84784C42.5289 6.20629 42.7962 6.38969 43.1889 6.38969C43.6233 6.38969 44.0076 6.1396 44.2332 5.84784V3.83051H41.0669V2.89686H48.1264V3.83051ZM49.8149 3.83051V8.0819H48.6452V3.83051H48.002V2.89686H50.5835V3.83051H49.8149ZM54.129 2.81351C55.2652 2.81351 55.7247 3.38036 55.7247 4.42237V5.34768H57.1032V3.83051H56.2928V2.89686H59.0414V3.83051H58.2728V8.0819H57.1032V6.28131H55.7247V6.40635C55.7247 6.87317 55.5075 7.07324 55.1399 7.07324C54.5885 7.07324 53.8867 6.33967 53.8867 5.82283C53.8867 5.57275 54.0204 5.34768 54.5551 5.34768L54.5969 5.41436V4.31401C54.5969 3.82218 54.4715 3.5971 54.1374 3.5971C53.9034 3.5971 53.7698 3.72214 53.7698 3.90553C53.7698 4.13061 53.9285 4.23897 54.2877 4.27232L54.1791 5.0309C53.3103 4.98088 52.7672 4.59742 52.7672 3.89719C52.7672 3.17196 53.3186 2.81351 54.129 2.81351ZM62.3516 7.52339L61.5496 8.2653C60.6473 7.49838 59.979 6.83982 59.5696 6.26464C59.3023 5.90619 59.1937 5.63944 59.1937 5.35602C59.1937 5.0059 59.4359 4.78083 59.8119 4.78083C60.0959 4.78083 60.3298 4.89753 60.5805 5.11427C60.8478 4.93088 60.9648 4.68912 60.9648 4.36401C60.9648 4.17228 60.9314 3.9889 60.8729 3.83051H58.9179V2.89686H62.7276V3.83051H62.0258C62.0843 4.02224 62.1261 4.24731 62.1261 4.53074C62.1261 5.34767 61.6164 5.86451 60.7977 6.18128C61.2572 6.63143 61.7752 7.07324 62.3516 7.52339ZM64.4184 3.83051V8.0819H63.2488V3.83051H62.6055V2.89686H63.2739C62.9063 1.78817 62.7225 1.56311 62.263 1.56311C62.0541 1.56311 61.8369 1.61312 61.6364 1.68814L61.344 0.779508C61.6447 0.662803 61.9789 0.612793 62.3048 0.612793C63.3407 0.612793 63.7166 1.09627 64.2764 2.89686H65.187V3.83051H64.4184ZM67.3754 8.27363C66.4564 7.365 65.8633 6.63976 65.5876 6.1396C65.4038 5.83117 65.3369 5.58942 65.3369 5.37268C65.3369 5.02256 65.5458 4.78083 65.9635 4.78083C66.2309 4.78083 66.4481 4.89753 66.6486 5.07259C66.8073 4.8892 66.8741 4.66411 66.8741 4.38069C66.8741 4.18062 66.8407 3.9889 66.7739 3.83051H65.0612V2.89686H71.3521V3.83051H70.5835V8.0819H69.4139V6.19796C69.1883 6.23964 68.9293 6.26464 68.662 6.26464C68.2025 6.26464 67.7012 6.17295 67.225 5.92287C67.0997 6.00623 66.9577 6.08959 66.799 6.15628C67.1833 6.60642 67.7012 7.08992 68.2359 7.57341L67.3754 8.27363ZM68.662 5.32266C68.921 5.32266 69.1716 5.29766 69.4139 5.2393V3.83051H67.9352C68.002 4.03058 68.0354 4.23898 68.0354 4.50574C68.0354 4.78916 67.9686 5.0309 67.86 5.23097C68.119 5.29765 68.3612 5.32266 68.662 5.32266ZM69.458 2.95522C69.0737 1.79651 68.8983 1.56311 68.422 1.56311C68.2215 1.56311 67.996 1.61312 67.8038 1.68814L67.5114 0.779508C67.8122 0.662803 68.1464 0.612793 68.4722 0.612793C69.4998 0.612793 69.8841 1.09628 70.4605 2.95522H69.458ZM76.025 3.83051V8.0819H74.8638V6.28131H73.3349V6.40635C73.3349 6.87317 73.1093 7.07324 72.7501 7.07324C72.1904 7.07324 71.4969 6.33967 71.4969 5.82283C71.4969 5.57275 71.6223 5.34768 72.1235 5.34768H72.1653V3.83051H71.2296V2.89686H76.7936V3.83051H76.025ZM74.8638 3.83051H73.3349V5.34768H74.8638V3.83051ZM74.7997 1.66314C74.7997 1.29635 75.0754 1.01292 75.4514 1.01292C75.819 1.01292 76.0947 1.29635 76.0947 1.66314C76.0947 2.03826 75.819 2.32169 75.4514 2.32169C75.0754 2.32169 74.7997 2.03826 74.7997 1.66314ZM80.1048 8.66543C79.9293 8.30698 79.7873 7.92352 79.6787 7.59841C79.5534 7.61508 79.4114 7.62342 79.2443 7.62342C78.1331 7.62342 76.9969 7.11492 76.9969 5.88951C76.9969 4.83083 77.7154 4.31401 79.1775 4.31401H79.5116V3.83051H76.6795V2.89686H81.4833V3.83051H80.6645V5.20596H79.3696C78.5425 5.20596 78.1582 5.43937 78.1582 5.93953C78.1582 6.42302 78.5676 6.68145 79.2276 6.68145C79.2861 6.68145 79.3445 6.67311 79.4114 6.67311C79.3947 6.60642 79.3947 6.54807 79.3947 6.48972C79.3947 6.04791 79.6871 5.8145 80.1466 5.8145C80.6979 5.8145 81.0488 6.17294 81.0488 6.60642C81.0488 6.90652 80.8901 7.1316 80.5893 7.28998C80.7314 7.59008 80.8985 7.92352 81.124 8.28197L80.1048 8.66543ZM83.3041 2.89686H88.5674V3.83051H87.7988V8.0819H86.6291V5.90619H85.3927V6.08958C85.3927 6.58141 85.1838 6.80649 84.8079 6.80649C84.2565 6.80649 83.5631 6.06457 83.5631 5.51439C83.5631 5.18929 83.7051 4.97256 84.2147 4.97256H86.6291V3.83051H83.3041V2.89686ZM90.2568 3.83051V8.0819H89.0872V3.83051H88.4439V2.89686H91.0254V3.83051H90.2568ZM95.6951 3.83051V8.0819H94.5338V6.28131H93.005V6.40635C93.005 6.87317 92.7794 7.07324 92.4201 7.07324C91.8604 7.07324 91.167 6.33967 91.167 5.82283C91.167 5.57275 91.2923 5.34768 91.7936 5.34768H91.8353V3.83051H90.8996V2.89686H96.4637V3.83051H95.6951ZM94.5338 3.83051H93.005V5.34768H94.5338V3.83051Z" fill="black"/>
</svg>
